<?xml version="1.0" encoding="UTF-8" standalone="no"?>
<!-- Generator: Adobe Illustrator 16.0.3, SVG Export Plug-In . SVG Version: 6.00 Build 0)  -->

<svg
   xmlns:dc="http://purl.org/dc/elements/1.1/"
   xmlns:cc="http://creativecommons.org/ns#"
   xmlns:rdf="http://www.w3.org/1999/02/22-rdf-syntax-ns#"
   xmlns:svg="http://www.w3.org/2000/svg"
   xmlns="http://www.w3.org/2000/svg"
   xmlns:sodipodi="http://sodipodi.sourceforge.net/DTD/sodipodi-0.dtd"
   xmlns:inkscape="http://www.inkscape.org/namespaces/inkscape"
   version="1.1"
   id="Layer_1"
   x="0px"
   y="0px"
   width="200px"
   height="200px"
   viewBox="0 0 200 200"
   enable-background="new 0 0 200 200"
   xml:space="preserve"
   sodipodi:docname="bar_icon.svg"
   inkscape:version="0.92.4 (5da689c313, 2019-01-14)"
   inkscape:export-filename="d:\bar_icon.png"
   inkscape:export-xdpi="8.0600004"
   inkscape:export-ydpi="8.0600004"><metadata
   id="metadata847"><rdf:RDF><cc:Work
       rdf:about=""><dc:format>image/svg+xml</dc:format><dc:type
         rdf:resource="http://purl.org/dc/dcmitype/StillImage" /></cc:Work></rdf:RDF></metadata><defs
   id="defs845" /><sodipodi:namedview
   pagecolor="#ffffff"
   bordercolor="#666666"
   borderopacity="1"
   objecttolerance="10"
   gridtolerance="10"
   guidetolerance="10"
   inkscape:pageopacity="0"
   inkscape:pageshadow="2"
   inkscape:window-width="1920"
   inkscape:window-height="1017"
   id="namedview843"
   showgrid="false"
   inkscape:zoom="4.24"
   inkscape:cx="100"
   inkscape:cy="100"
   inkscape:window-x="-8"
   inkscape:window-y="-8"
   inkscape:window-maximized="1"
   inkscape:current-layer="Layer_1" />
<path
   fill-rule="evenodd"
   clip-rule="evenodd"
   fill="#02C753"
   d="M195.201,101.577c-25.579,0.188-82.44-28.853-99.348-50.675  c9.476-10.835,17.003-22.942,22.405-36.355c2.4-5.958,2.452-5.941,8.863-5.94c15.983,0.004,31.981,0.426,47.946-0.114  c12.193-0.412,20.057,9.013,20.114,19.784c0.084,15.483,0.02,30.967,0.02,46.451C195.201,83.571,195.201,92.414,195.201,101.577z"
   id="path832"
   style="fill:#add3c8;fill-opacity:1" />
<path
   fill-rule="evenodd"
   clip-rule="evenodd"
   fill="#02C753"
   d="M37.449,84.697c15.485-2.971,29.687-9.264,42.636-19.156  c7.261,7.207,15.069,13.717,23.136,19.935c8.025,6.187,16.547,11.578,25.623,16.693c-3.88,4.189-7.691,8.25-11.441,12.366  c-12.532,13.755-22.475,29.235-30.351,46.049c-1.012,2.161-2.189,2.867-4.519,2.829c-8.869-0.141-17.755-0.379-26.609,0.009  c-10.176,0.444-18.481-7.671-18.726-17.471c-0.501-20.102-0.149-40.225-0.136-60.338C37.063,85.387,37.246,85.163,37.449,84.697z"
   id="path834"
   style="fill:#add3c8;fill-opacity:1" />
<path
   fill-rule="evenodd"
   clip-rule="evenodd"
   fill="#02C753"
   d="M195.043,124.417c0,7.369,0.518,14.634-0.118,21.796  c-1.001,11.259-10.207,17.49-19.349,17.272c-21.212-0.507-42.444-0.152-63.668-0.146c-0.992,0-1.983,0-3.186,0  c0.134-2.285,1.554-3.781,2.479-5.433c8.8-15.702,20.338-29.241,33.237-41.676c3.031-2.923,6.133-4.277,10.742-2.364  c11.739,4.871,24.078,7.823,36.652,9.737C192.917,123.769,193.969,124.14,195.043,124.417z"
   id="path836"
   style="fill:#add3c8;fill-opacity:1" />
<path
   fill-rule="evenodd"
   clip-rule="evenodd"
   fill="#010101"
   d="M10.938,76.597c2.983,0,5.712,0,8.518,0  c0.769,2.063,0.336,4.021,0.395,6.205c-2.961,0-5.795,0-8.875,0c0,10.407,0,20.572,0,31.046c2.82,0,5.637,0,8.678,0  c0,2.237,0,4.183,0,6.38c-2.72,0-5.554,0-8.657,0c0,10.396,0,20.549,0,30.97c2.821,0,5.649,0,8.68,0c0,2.189,0,4.126,0,6.237  c-2.752,0.781-5.634,0.034-8.692,0.497c0,10.084,0,20.248,0,30.617c10.165,0,20.365,0,30.738,0c0.821-2.469-0.004-5.111,0.465-7.809  c1.862-0.706,3.804-0.069,6.011-0.385c0,2.896,0,5.468,0,8.196c10.488,0,20.694,0,31.091,0c0.804-2.456,0.014-5.092,0.446-7.813  c1.853-0.572,3.778-0.228,5.982-0.27c0,2.801,0,5.366,0,8.09c10.492,0,20.702,0,31.112,0c0.856-2.429-0.029-5.069,0.493-7.805  c1.774-0.783,3.71-0.041,5.903-0.415c0,2.938,0,5.503,0,8.232c10.497,0,20.708,0,31.124,0c0.809-2.434,0.063-5.062,0.472-7.805  c1.791-0.652,3.714-0.221,5.907-0.312c0,2.813,0,5.385,0,8.111c9.479,0,18.676,0,28.305,0c0-5.102,0-10.146,0-15.322  c2.242,0,4.054,0,6.043,0c0,7.22,0,14.29,0,21.595c-63.374,0-126.687,0-190.319,0c0-63.109,0-126.288,0-189.679  c7.01,0,14.193,0,21.542,0c0,1.858,0,3.658,0,5.774c-5.161,0-10.223,0-15.436,0c0,9.518,0,18.725,0,28.346c2.916,0,5.833,0,8.882,0  c0,2.223,0,4.031,0,6.091c-2.941,0-5.775,0-8.81,0C10.938,55.813,10.938,66.007,10.938,76.597z"
   id="path838"
   style="fill:#0060ac;fill-opacity:1" />
<path
   fill-rule="evenodd"
   clip-rule="evenodd"
   fill="#02C753"
   d="M37.063,61.833c0-12.266-0.442-24.262,0.136-36.209  c0.486-10.052,8.76-16.978,18.792-16.981c13.112-0.005,26.225-0.006,39.337-0.009c0.966,0,1.932,0,2.975,0  C92.315,31.055,58.61,60.373,37.063,61.833z"
   id="path840"
   style="fill:#add3c8;fill-opacity:1" />
</svg>