<?xml version="1.0" encoding="UTF-8" standalone="no"?>
<!-- Generator: Adobe Illustrator 16.0.3, SVG Export Plug-In . SVG Version: 6.00 Build 0)  -->

<svg
   xmlns:dc="http://purl.org/dc/elements/1.1/"
   xmlns:cc="http://creativecommons.org/ns#"
   xmlns:rdf="http://www.w3.org/1999/02/22-rdf-syntax-ns#"
   xmlns:svg="http://www.w3.org/2000/svg"
   xmlns="http://www.w3.org/2000/svg"
   xmlns:xlink="http://www.w3.org/1999/xlink"
   xmlns:sodipodi="http://sodipodi.sourceforge.net/DTD/sodipodi-0.dtd"
   xmlns:inkscape="http://www.inkscape.org/namespaces/inkscape"
   version="1.1"
   id="Layer_1"
   inkscape:export-ydpi="39.650002"
   inkscape:export-xdpi="39.650002"
   inkscape:export-filename="d:\icon.png"
   inkscape:version="0.92.4 (5da689c313, 2019-01-14)"
   sodipodi:docname="icon.svg"
   x="0px"
   y="0px"
   width="320"
   height="210"
   viewBox="7.914 28.157 320.00001 210.00001"
   enable-background="new 7.914 28.157 328.086 288.654"
   xml:space="preserve"><metadata
   id="metadata895"><rdf:RDF><cc:Work
       rdf:about=""><dc:format>image/svg+xml</dc:format><dc:type
         rdf:resource="http://purl.org/dc/dcmitype/StillImage" /><dc:title></dc:title></cc:Work></rdf:RDF></metadata><defs
   id="defs893">
	
</defs>
<sodipodi:namedview
   inkscape:cy="94.31101"
   inkscape:cx="153.98585"
   inkscape:zoom="3.0285714"
   showgrid="false"
   guidetolerance="10"
   gridtolerance="10"
   objecttolerance="10"
   bordercolor="#666666"
   pagecolor="#ffffff"
   borderopacity="1"
   id="namedview851"
   inkscape:current-layer="g882"
   inkscape:window-maximized="1"
   inkscape:window-y="-8"
   inkscape:window-x="1912"
   inkscape:window-height="1017"
   inkscape:window-width="1920"
   inkscape:pageshadow="2"
   inkscape:pageopacity="0"
   fit-margin-top="0"
   fit-margin-left="0"
   fit-margin-right="0"
   fit-margin-bottom="0">
	</sodipodi:namedview>

<g
   id="g926"
   transform="translate(5.0449974,-7.3635075)"><path
     style="fill:#0060ac"
     inkscape:connector-curvature="0"
     d="m 157.9,68.758005 c -1.097,0.703 -1.58,2.508 -3.433,2.439 -3.274,-0.307 -5.39,-3.159 -9.069,-4.065 -8.276,4.819 -16.947,9.868 -25.58,14.895 1.287,3.298 4.536,3.157 6.022,5.481 -1.051,1.603 -2.904,2.197 -5.131,3.379 -6.152,-6.192 -11.907,-3.024 -17.958,1.094 -5.177,3.523 -10.847,6.323 -16.778,9.718005 2.402,1.908 4.387,3.483 6.44,5.115 -4.564,6.313 -8.402,-0.618 -13.851,-0.731 -7.896,4.548 -16.743,9.644 -26.053,15.004 2.732,1.825 4.882,3.263 7.105,4.748 -0.823,2.021 -3.007,1.976 -4.013,3.265 -3.513,-0.595 -5.663,-3.323 -9.31,-4.354 -8.609,4.975 -17.557,10.143 -27.081,15.643 9.582,5.623 18.483,10.847 27.36,16.057 2.711,-1.514 5.152,-2.876 7.475,-4.174 2.189,0.649 3.819,1.726 5.544,3.223 -2.267,1.427 -4.302,2.709 -6.803,4.283 9.139,5.335 17.864,10.429 26.396,15.408 3.32,-0.028 5.233,-2.717 8.804,-3.309 1.155,0.514 2.921,1.297 4.767,2.116 -1.419,2.687 -4.515,2.698 -6.157,5.376 9.097,4.828 17.173,11.242 26.85,15.436 2.332,-1.264 4.787,-2.594 7.112,-3.853 2.226,0.371 3.957,1.153 5.352,3.12 -1.95,1.265 -3.827,2.48 -6.458,4.186 9.477,5.615 18.343,10.869 26.957,15.975 2.966,-1.594 5.301,-2.85 7.561,-4.063 1.954,0.485 3.527,1.257 4.852,3.123 -1.902,1.334 -3.741,2.623 -6.204,4.351 8.354,4.768 16.295,9.298 24.552,14.008 4.479,-2.508 8.934,-5.004 13.417,-7.516 2.056,0.305 3.702,1.313 5.589,2.998 -6.234,4.021 -12.259,7.946 -19.285,11.023 -55.967,-32.335 -111.997,-64.706 -168.977,-97.626 56.428,-32.866 112.072,-65.276005 167.648,-97.647005 7.236,2.438 12.64,7.522 19.358,10.323 -1.104,2.248 -2.819,2.895 -4.803,3.82 -4.327,-2.4 -8.808,-4.886 -13.651,-7.572 -8.136,4.047 -15.988,8.865 -23.991,13.789 1.536,2.42 4.769,2.451 5.425,5.514 z"
     id="path842" /><g
     transform="translate(0,-32.964995)"
     id="g882">
		<g
   enable-background="new    "
   id="g880"
   style="fill:#add3c8;fill-opacity:1">
			<defs
   id="defs859">
				<rect
   id="SVGID_1_"
   x="64.345001"
   y="100.578"
   enable-background="new    "
   width="253.479"
   height="145.57401" />
			</defs>
			<clipPath
   id="SVGID_2_">
				<use
   xlink:href="#SVGID_1_"
   overflow="visible"
   id="use861"
   style="overflow:visible"
   x="0"
   y="0"
   width="100%"
   height="100%" />
			</clipPath>
			<g
   clip-path="url(#SVGID_2_)"
   id="g878"
   style="fill:#add3c8;fill-opacity:1">
				<g
   id="g876"
   style="fill:#add3c8;fill-opacity:1">
					<g
   id="g874"
   style="fill:#add3c8;fill-opacity:1">
						<g
   id="g872"
   style="fill:#add3c8;fill-opacity:1">
							<path
   d="m 262.302,137.197 c -0.926,0 -1.921,0.183 -3.134,0.483 -16.29,4.011 -33.111,6.901 -50.778,7.877 -1.322,0.073 -2.763,-0.145 -4.329,0.527 0.333,27.276 13.914,52.102 41.571,74.65 17.964,-10.304 35.271,-20.231 52.578,-30.163 4.05,-2.328 8.109,-4.651 12.123,-7.005 8.91,-5.225 11.097,-13.768 -0.09,-19.869 -15.165,-8.271 -29.745,-16.896 -44.406,-25.455 -1.271,-0.742 -2.345,-1.045 -3.535,-1.045"
   id="path864"
   inkscape:connector-curvature="0"
   style="fill:#add3c8;fill-opacity:1" />
							<path
   d="m 123.997,133.654 c -18.108,10.392 -36.171,20.407 -53.478,30.824 -8.397,5.054 -8.343,13.257 0.828,18.078 7.992,4.191 15.462,8.719 23.004,13.185 1.293,0.766 2.437,1.141 3.85,1.141 0.75,0 1.576,-0.106 2.54,-0.314 15.048,-3.264 30.564,-5.493 46.422,-6.938 12.122,-1.103 24.309,-1.575 37.042,-1.575 1.344,0 2.695,0.006 4.052,0.016 -7.137,-14.186 -10.116,-28.346 -10.161,-42.8 -19.98,-1.39 -37.827,-5.392 -54.099,-11.617"
   id="path866"
   inkscape:connector-curvature="0"
   style="fill:#add3c8;fill-opacity:1" />
							<path
   d="m 185.188,202.685 c -22.066,0 -43.881,1.382 -65.206,5.16 -1.035,0.181 -2.547,0.031 -2.727,1.018 14.562,8.29 29.124,16.575 43.668,24.876 6.03,3.443 11.988,6.928 17.982,10.392 0.44,0.16 0.882,0.32 1.322,0.48 0.075,-0.005 0.147,-0.008 0.217,-0.008 0.78,0 1.267,0.304 1.746,0.616 0.021,0 0.044,-0.001 0.065,-0.001 0.217,0 0.41,0.046 0.582,0.131 0.423,0.093 0.837,0.181 1.26,0.273 2.412,0.351 4.778,0.53 7.081,0.53 5.765,0 11.128,-1.126 15.797,-3.509 6.562,-3.351 12.52,-7.088 18.855,-10.722 -0.72,-0.702 -1.305,-1.415 -2.097,-2.034 -9.189,-7.191 -17.244,-14.795 -23.13,-23.064 -2.215,-3.107 -5.859,-4.078 -10.899,-4.12 -1.505,-0.012 -3.011,-0.018 -4.516,-0.018"
   id="path868"
   inkscape:connector-curvature="0"
   style="fill:#add3c8;fill-opacity:1" />
							<path
   d="m 191.209,100.578 c -4.166,0 -8.407,0.773 -12.429,2.413 -13.042,5.322 -22.779,12.735 -34.866,19.054 15.356,6.111 35.671,8.996 55.507,8.996 15.436,0 30.583,-1.749 42.863,-5.083 -0.981,-1.595 -2.826,-2.813 -4.896,-3.985 -10.098,-5.73 -20.133,-11.501 -30.194,-17.257 -4.678,-2.678 -10.26,-4.138 -15.985,-4.138"
   id="path870"
   inkscape:connector-curvature="0"
   style="fill:#add3c8;fill-opacity:1" />
						</g>
					</g>
				</g>
			</g>
		</g>
	</g></g>



</svg>