<?xml version="1.0" encoding="UTF-8" standalone="no"?>
<!-- Generator: Adobe Illustrator 16.0.3, SVG Export Plug-In . SVG Version: 6.00 Build 0)  -->

<svg
   xmlns:dc="http://purl.org/dc/elements/1.1/"
   xmlns:cc="http://creativecommons.org/ns#"
   xmlns:rdf="http://www.w3.org/1999/02/22-rdf-syntax-ns#"
   xmlns:svg="http://www.w3.org/2000/svg"
   xmlns="http://www.w3.org/2000/svg"
   xmlns:sodipodi="http://sodipodi.sourceforge.net/DTD/sodipodi-0.dtd"
   xmlns:inkscape="http://www.inkscape.org/namespaces/inkscape"
   version="1.1"
   id="Layer_1"
   x="0px"
   y="0px"
   width="340px"
   height="280px"
   viewBox="0 0 340 280"
   enable-background="new 0 0 340 280"
   xml:space="preserve"
   sodipodi:docname="icon.svg"
   inkscape:version="0.92.4 (5da689c313, 2019-01-14)"
   inkscape:export-filename="d:\icon.png"
   inkscape:export-xdpi="37.91"
   inkscape:export-ydpi="37.91"><metadata
   id="metadata855"><rdf:RDF><cc:Work
       rdf:about=""><dc:format>image/svg+xml</dc:format><dc:type
         rdf:resource="http://purl.org/dc/dcmitype/StillImage" /></cc:Work></rdf:RDF></metadata><defs
   id="defs853" /><sodipodi:namedview
   pagecolor="#ffffff"
   bordercolor="#666666"
   borderopacity="1"
   objecttolerance="10"
   gridtolerance="10"
   guidetolerance="10"
   inkscape:pageopacity="0"
   inkscape:pageshadow="2"
   inkscape:window-width="1920"
   inkscape:window-height="1017"
   id="namedview851"
   showgrid="false"
   inkscape:zoom="3.0285714"
   inkscape:cx="153.98585"
   inkscape:cy="140"
   inkscape:window-x="1912"
   inkscape:window-y="-8"
   inkscape:window-maximized="1"
   inkscape:current-layer="Layer_1" />
<path
   fill-rule="evenodd"
   clip-rule="evenodd"
   fill="#F24439"
   d="M252.616,142.257c-1.563-4.962-2.42-10.196-5.597-14.537  c0.192-3.296-1.982-5.998-2.297-9.167c-5.142-14.849-10.054-29.781-15.483-44.524c-7.035-19.103-2.113-35.431,11.442-49.425  c21.741-22.446,58.848-20.541,78.636,3.67c12.398,15.17,13.978,31.474,6.973,49.789c-9.123,23.853-16.937,48.207-25.291,72.354  c-0.154,0.444-0.023,0.988-0.026,1.486c-3.234,5.341-4.371,11.479-6.068,17.322c-1.526,5.258-3.323,10.258-7.979,13.043  c-3.597,2.152-7.212,4.301-12.523,2.547c-9.292-3.069-11.026-10.671-13.403-18.201C258.414,158.42,256.159,150.118,252.616,142.257z   M278.095,85.901c13.088,0.188,23.566-10.058,23.688-23.159c0.126-13.45-10.081-23.727-23.487-23.928  c-12.125-0.183-23.541,11.043-23.461,23.375C254.918,75.136,265.127,85.715,278.095,85.901z"
   id="path836"
   style="fill:#0060ac;fill-opacity:1" />
<path
   fill-rule="evenodd"
   clip-rule="evenodd"
   fill="#50AF54"
   d="M189.69,145.855c0.487,15.64,3.875,30.046,11.129,43.826  c-13.83,0.445-26.965-0.089-40.037,1.291c-15.82,1.67-31.652,3.248-47.198,6.791c-3.691,0.841-6.885,0.619-10.323-1.591  c-7.684-4.937-15.818-9.166-23.588-13.977c-6.281-3.889-6.731-10.309-1.24-15.383c4.434-4.098,10.031-6.452,15.129-9.554  c12.037-7.324,24.577-13.808,36.27-21.711c1.476-0.998,3.175-1.663,4.587-2.388C152.022,140.613,170.466,143.739,189.69,145.855z"
   id="path838"
   style="fill:#add3c8;fill-opacity:1" />
<path
   fill-rule="evenodd"
   clip-rule="evenodd"
   fill="#50AF54"
   d="M252.616,142.257c3.543,7.861,5.798,16.163,8.383,24.356  c2.377,7.53,4.111,15.132,13.403,18.201c5.312,1.754,8.927-0.395,12.523-2.547c4.655-2.785,6.452-7.785,7.979-13.043  c1.697-5.844,2.834-11.981,6.068-17.322c6.267,3.037,12.324,6.371,17.999,10.486c3.467,2.515,7.588,3.771,10.346,7.662  c3.801,5.362,3.962,9.125-1.235,13.082c-2.897,2.205-6.033,4.125-9.186,5.961c-18.472,10.763-36.978,21.468-55.483,32.173  c-1.131,0.654-2.356,1.145-3.42,1.655c-24.055-16.006-46.188-52.053-42.705-76.628C229.114,146.086,240.887,144.347,252.616,142.257  z"
   id="path840"
   style="fill:#add3c8;fill-opacity:1" />
<path
   fill-rule="evenodd"
   clip-rule="evenodd"
   fill="#F24439"
   d="M157.9,101.723c-1.097,0.703-1.58,2.508-3.433,2.439  c-3.274-0.307-5.39-3.159-9.069-4.065c-8.276,4.819-16.947,9.868-25.58,14.895c1.287,3.298,4.536,3.157,6.022,5.481  c-1.051,1.603-2.904,2.197-5.131,3.379c-6.152-6.192-11.907-3.024-17.958,1.094c-5.177,3.523-10.847,6.323-16.778,9.718  c2.402,1.908,4.387,3.483,6.44,5.115c-4.564,6.313-8.402-0.618-13.851-0.731c-7.896,4.548-16.743,9.643-26.053,15.004  c2.732,1.825,4.882,3.262,7.105,4.748c-0.823,2.02-3.007,1.975-4.013,3.265c-3.513-0.595-5.663-3.324-9.31-4.354  c-8.609,4.974-17.557,10.142-27.081,15.643c9.582,5.623,18.483,10.846,27.36,16.056c2.711-1.514,5.152-2.876,7.475-4.173  c2.189,0.649,3.819,1.725,5.544,3.222c-2.267,1.427-4.302,2.709-6.803,4.283c9.139,5.335,17.864,10.429,26.396,15.409  c3.32-0.029,5.233-2.718,8.804-3.309c1.155,0.513,2.921,1.297,4.767,2.116c-1.419,2.687-4.515,2.698-6.157,5.376  c9.097,4.828,17.173,11.242,26.85,15.436c2.332-1.264,4.787-2.594,7.112-3.853c2.226,0.371,3.957,1.153,5.352,3.12  c-1.95,1.265-3.827,2.48-6.458,4.186c9.477,5.615,18.343,10.869,26.957,15.974c2.966-1.594,5.301-2.849,7.561-4.063  c1.954,0.485,3.527,1.256,4.852,3.123c-1.902,1.334-3.741,2.623-6.204,4.351c8.354,4.767,16.295,9.297,24.552,14.007  c4.478-2.508,8.934-5.004,13.417-7.516c2.055,0.305,3.702,1.313,5.589,2.999c-6.234,4.021-12.259,7.946-19.286,11.023  c-55.966-32.335-111.996-64.706-168.976-97.626c56.428-32.866,112.072-65.276,167.648-97.647c7.237,2.438,12.64,7.522,19.359,10.323  c-1.104,2.248-2.82,2.895-4.803,3.82c-4.327-2.4-8.808-4.886-13.651-7.572c-8.136,4.047-15.988,8.865-23.991,13.789  C154.011,98.629,157.244,98.66,157.9,101.723z"
   id="path842"
   style="fill:#0060ac;fill-opacity:1" />
<path
   fill-rule="evenodd"
   clip-rule="evenodd"
   fill="#50AF54"
   d="M128.339,210.222c27.908-4.813,55.039-6.445,82.408-4.669  c8.114,11.289,18.312,20.178,29.018,29.445c-8.189,4.205-14.945,10.01-23.489,12.56c-10.163,3.033-19.809,2.475-29.262-3.12  c-14.638-8.665-29.729-16.566-44.344-25.27C138.213,216.514,133.534,214.079,128.339,210.222z"
   id="path844"
   style="fill:#add3c8;fill-opacity:1" />
<path
   fill-rule="evenodd"
   clip-rule="evenodd"
   fill="#50AF54"
   d="M244.722,118.553c0.314,3.169,2.489,5.871,2.297,9.167  c-17.207,3.638-34.604,4.005-52.053,2.729c-11.619-0.849-23.052-2.951-34.208-6.391c-1.697-0.523-3.349-1.198-5.395-1.938  c3.033-3.882,7.22-4.904,10.67-6.985c6.53-3.938,13.088-7.871,19.878-11.33c14.318-7.294,27.56-4.031,40.328,4.428  C232.112,112.124,238.239,115.691,244.722,118.553z"
   id="path846"
   style="fill:#add3c8;fill-opacity:1" />

</svg>